<?xml version="1.0" encoding="utf-8"?>
<!-- Generator: Adobe Illustrator 22.1.0, SVG Export Plug-In . SVG Version: 6.00 Build 0)  -->
<svg version="1.1" id="layer" xmlns="http://www.w3.org/2000/svg" xmlns:xlink="http://www.w3.org/1999/xlink" x="0px" y="0px"
	 viewBox="0 0 170.079 28.346" style="enable-background:new 0 0 170.079 28.346;" xml:space="preserve">
<style type="text/css">
	.st0{fill:#FFFFFF;}
</style>
<g>
	<path class="st0" d="M4.809,19.752v-0.624c1.512-0.144,1.68-0.288,1.68-1.92v-4.969c0-1.464-0.072-1.584-1.512-1.8V9.863
		c1.224-0.192,2.352-0.504,3.408-0.936v8.281c0,1.632,0.168,1.776,1.704,1.92v0.624H4.809z M6.081,5.663
		c0-0.72,0.576-1.248,1.224-1.248c0.672,0,1.2,0.528,1.2,1.248c0,0.648-0.528,1.224-1.224,1.224
		C6.657,6.887,6.081,6.311,6.081,5.663z"/>
	<path class="st0" d="M14.865,11.519c0.72-1.2,1.752-2.544,2.904-2.544c0.816,0,1.392,0.624,1.392,1.2
		c0,0.48-0.312,0.96-0.768,1.176c-0.288,0.12-0.504,0.096-0.648-0.048c-0.336-0.36-0.624-0.504-1.008-0.504
		c-0.624,0-1.392,0.72-1.92,2.064v4.393c0,1.584,0.12,1.729,1.968,1.872v0.624h-5.521v-0.624c1.488-0.144,1.656-0.288,1.656-1.872
		v-4.969c0-1.584-0.12-1.68-1.488-1.872V9.887c1.176-0.192,2.232-0.48,3.384-0.984v2.616H14.865z"/>
	<path class="st0" d="M27.729,20.04c-0.36,0-0.864-0.216-1.128-0.456c-0.312-0.336-0.456-0.672-0.576-1.08
		c-0.96,0.648-2.112,1.536-2.832,1.536c-1.704,0-2.88-1.416-2.88-2.929c0-1.176,0.624-1.92,1.944-2.376
		c1.44-0.48,3.192-1.128,3.72-1.56v-0.432c0-1.728-0.816-2.712-2.016-2.712c-0.48,0-0.84,0.192-1.08,0.48
		c-0.312,0.312-0.528,0.84-0.72,1.56c-0.096,0.408-0.36,0.576-0.696,0.576c-0.432,0-1.056-0.48-1.056-1.032
		c0-0.36,0.312-0.624,0.768-0.96c0.672-0.48,2.232-1.416,3.6-1.68c0.72,0,1.44,0.216,1.968,0.648c0.84,0.696,1.08,1.68,1.08,2.928
		v4.464c0,1.08,0.432,1.44,0.84,1.44c0.288,0,0.625-0.12,0.864-0.265l0.24,0.624L27.729,20.04z M25.977,13.991
		c-0.504,0.264-1.656,0.769-2.16,1.008c-0.936,0.432-1.464,0.888-1.464,1.752c0,1.248,0.96,1.848,1.704,1.848
		c0.625-0.023,1.464-0.432,1.92-0.864V13.991z"/>
	<path class="st0" d="M39.057,19.8c-1.104-1.224-2.616-3.145-3.937-4.752c-0.312-0.384-0.528-0.528-0.744-0.528
		c-0.12,0-0.216,0.024-0.384,0.072v2.665c0,1.584,0.216,1.729,1.752,1.872v0.624h-5.376v-0.624c1.608-0.144,1.752-0.336,1.752-1.872
		V5.903c0-1.584-0.12-1.704-1.584-1.824V3.502c1.152-0.12,2.521-0.528,3.457-0.84v11.305c0.72-0.144,1.152-0.456,1.512-0.84
		c0.528-0.528,1.248-1.464,1.704-2.112c0.48-0.744,0.408-0.936-0.72-1.056V9.335l4.896-0.216v0.6
		c-1.656,0.288-2.16,0.528-3.096,1.416c-0.6,0.6-1.032,1.08-2.064,2.28c0.48,0.72,2.904,3.552,3.721,4.392
		c0.864,0.912,1.488,1.272,2.4,1.32v0.624L39.057,19.8z"/>
	<path class="st0" d="M50.288,20.04c-0.36,0-0.864-0.216-1.128-0.456c-0.312-0.336-0.456-0.672-0.576-1.08
		c-0.96,0.648-2.112,1.536-2.832,1.536c-1.704,0-2.88-1.416-2.88-2.929c0-1.176,0.624-1.92,1.944-2.376
		c1.44-0.48,3.192-1.128,3.72-1.56v-0.432c0-1.728-0.816-2.712-2.016-2.712c-0.48,0-0.84,0.192-1.08,0.48
		c-0.312,0.312-0.528,0.84-0.72,1.56c-0.096,0.408-0.36,0.576-0.696,0.576c-0.432,0-1.056-0.48-1.056-1.032
		c0-0.36,0.312-0.624,0.768-0.96c0.672-0.48,2.232-1.416,3.6-1.68c0.72,0,1.44,0.216,1.968,0.648c0.84,0.696,1.08,1.68,1.08,2.928
		v4.464c0,1.08,0.432,1.44,0.84,1.44c0.288,0,0.625-0.12,0.864-0.265l0.24,0.624L50.288,20.04z M48.536,13.991
		c-0.504,0.264-1.656,0.769-2.16,1.008c-0.936,0.432-1.464,0.888-1.464,1.752c0,1.248,0.96,1.848,1.704,1.848
		c0.625-0.023,1.464-0.432,1.92-0.864V13.991z"/>
	<path class="st0" d="M65.816,20.76c-1.68,0.984-3.24,1.297-4.873,1.297c-3.792,0-7.249-2.425-7.249-7.297
		c0.024-5.617,4.561-8.905,9.169-8.905c4.296,0,6.72,2.856,6.72,6.168c0,3.264-2.448,5.952-5.664,5.952
		c-1.272,0-1.272-0.72-1.081-1.704l0.264-1.368l-0.048-0.024c-0.792,1.176-2.976,3.096-4.081,3.096
		c-0.576,0-1.152-0.624-1.152-2.016c0-1.32,0.528-3.168,1.944-4.513c1.056-1.008,2.353-1.752,3.841-1.776
		c0.336-0.024,0.888,0.12,1.2,0.168c0.336,0.072,0.552,0.12,0.816,0.12c-0.384,1.56-0.792,3.48-1.176,5.448
		c-0.216,1.272-0.12,1.585,0.48,1.561c1.608-0.048,3.504-1.704,3.504-4.944c0-3.313-2.4-5.232-5.688-5.232
		c-4.488,0-7.489,3.24-7.489,7.729c0,3.168,1.68,6.48,6.457,6.48c1.416,0,3.192-0.552,3.84-0.912L65.816,20.76z M62.6,10.631
		c-0.624,0-1.152,0.288-1.56,0.72c-0.672,0.768-1.368,2.472-1.392,4.033c0,0.864,0.216,1.056,0.504,1.056
		c0.432,0,1.728-0.888,3.144-2.88c0.264-0.792,0.48-1.944,0.625-2.665c-0.312-0.144-0.84-0.264-1.296-0.264H62.6z"/>
	<path class="st0" d="M71.311,19.752v-0.624c1.512-0.144,1.68-0.288,1.68-1.92v-4.969c0-1.464-0.072-1.584-1.512-1.8V9.863
		c1.224-0.192,2.352-0.504,3.408-0.936v8.281c0,1.632,0.168,1.776,1.704,1.92v0.624H71.311z M72.583,5.663
		c0-0.72,0.576-1.248,1.224-1.248c0.672,0,1.2,0.528,1.2,1.248c0,0.648-0.528,1.224-1.224,1.224
		C73.159,6.887,72.583,6.311,72.583,5.663z"/>
	<path class="st0" d="M77.743,19.752v-0.624c1.512-0.144,1.68-0.288,1.68-1.92v-4.969c0-1.464-0.072-1.584-1.512-1.8V9.863
		c1.224-0.192,2.352-0.504,3.408-0.936v8.281c0,1.632,0.168,1.776,1.704,1.92v0.624H77.743z M79.015,5.663
		c0-0.72,0.576-1.248,1.224-1.248c0.672,0,1.2,0.528,1.2,1.248c0,0.648-0.528,1.224-1.224,1.224
		C79.591,6.887,79.015,6.311,79.015,5.663z"/>
	<path class="st0" d="M90.391,12.095c-0.456-1.416-1.296-2.376-2.472-2.376c-0.912,0-1.561,0.72-1.561,1.656
		c0,1.056,0.96,1.632,2.04,2.088c1.801,0.744,3.024,1.608,3.024,3.264c0,2.185-2.04,3.313-3.96,3.313
		c-1.225,0-2.328-0.456-2.76-0.816c-0.168-0.336-0.384-1.968-0.384-2.832l0.624-0.12c0.432,1.584,1.513,2.977,2.952,2.977
		c0.889,0,1.704-0.672,1.704-1.681c0-1.056-0.695-1.632-1.896-2.184c-1.44-0.672-3-1.464-3-3.313c0-1.68,1.44-3.096,3.648-3.096
		c0.984-0.024,1.633,0.216,2.137,0.408c0.191,0.552,0.456,1.968,0.528,2.568L90.391,12.095z"/>
	<path class="st0" d="M98.983,15h-5.473l0.336-1.32h5.496L98.983,15z"/>
	<path class="st0" d="M101.047,19.752v-0.624c1.512-0.144,1.728-0.288,1.728-1.872V5.903c0-1.632-0.144-1.704-1.656-1.824V3.502
		c1.248-0.144,2.736-0.552,3.553-0.84v14.593c0,1.584,0.192,1.729,1.729,1.872v0.624H101.047z"/>
	<path class="st0" d="M115.184,20.04c-0.359,0-0.864-0.216-1.128-0.456c-0.312-0.336-0.456-0.672-0.576-1.08
		c-0.96,0.648-2.112,1.536-2.832,1.536c-1.704,0-2.88-1.416-2.88-2.929c0-1.176,0.624-1.92,1.943-2.376
		c1.44-0.48,3.192-1.128,3.721-1.56v-0.432c0-1.728-0.816-2.712-2.017-2.712c-0.479,0-0.84,0.192-1.08,0.48
		c-0.312,0.312-0.527,0.84-0.72,1.56c-0.096,0.408-0.36,0.576-0.696,0.576c-0.432,0-1.056-0.48-1.056-1.032
		c0-0.36,0.312-0.624,0.768-0.96c0.673-0.48,2.232-1.416,3.601-1.68c0.72,0,1.44,0.216,1.968,0.648
		c0.841,0.696,1.08,1.68,1.08,2.928v4.464c0,1.08,0.433,1.44,0.841,1.44c0.288,0,0.624-0.12,0.864-0.265l0.239,0.624L115.184,20.04z
		 M113.432,13.991c-0.504,0.264-1.656,0.769-2.16,1.008c-0.937,0.432-1.464,0.888-1.464,1.752c0,1.248,0.96,1.848,1.704,1.848
		c0.624-0.023,1.464-0.432,1.92-0.864V13.991z"/>
	<path class="st0" d="M122.768,9.215c0.384-0.168,0.72-0.24,0.983-0.24c2.568,0,4.729,2.208,4.729,5.041
		c0,3.528-2.808,6.024-6.024,6.024c-0.984,0-2.208-0.24-3.528-0.864V5.831c0-1.488-0.048-1.632-1.584-1.776V3.502
		c1.128-0.144,2.592-0.504,3.48-0.84v7.393L122.768,9.215z M120.823,16.968c0,0.36,0.048,0.6,0.144,0.816
		c0.145,0.479,0.864,1.319,2.137,1.344c1.992,0,3.264-1.704,3.264-4.488c0-2.736-1.68-4.32-3.672-4.32
		c-0.672,0-1.44,0.192-1.872,0.456V16.968z"/>
	<path class="st0" d="M131.384,20.04c-0.744,0-1.319-0.552-1.319-1.393c0-0.768,0.575-1.368,1.344-1.368
		c0.768,0,1.344,0.601,1.344,1.368c0,0.841-0.576,1.393-1.344,1.393H131.384z"/>
	<path class="st0" d="M140.313,8.975c2.952,0,5.184,2.376,5.184,5.353c0,3.864-2.832,5.712-5.208,5.712
		c-3.288,0-5.257-2.641-5.257-5.305c0-3.96,3.072-5.76,5.257-5.76H140.313z M140.024,9.767c-1.465,0-2.761,1.488-2.761,4.2
		c0,3.025,1.32,5.281,3.288,5.281c1.488,0,2.713-1.104,2.713-4.393c0-2.808-1.128-5.088-3.217-5.088H140.024z"/>
	<path class="st0" d="M150.488,11.519c0.72-1.2,1.752-2.544,2.904-2.544c0.815,0,1.392,0.624,1.392,1.2
		c0,0.48-0.312,0.96-0.768,1.176c-0.288,0.12-0.504,0.096-0.648-0.048c-0.336-0.36-0.624-0.504-1.008-0.504
		c-0.624,0-1.393,0.72-1.92,2.064v4.393c0,1.584,0.12,1.729,1.968,1.872v0.624h-5.521v-0.624c1.488-0.144,1.656-0.288,1.656-1.872
		v-4.969c0-1.584-0.12-1.68-1.488-1.872V9.887c1.176-0.192,2.232-0.48,3.385-0.984v2.616H150.488z"/>
	<path class="st0" d="M166.04,9.431c-0.217,0.384-0.696,1.032-1.08,1.224l-1.368-0.072c0.456,0.528,0.72,1.272,0.72,2.136
		c0,2.592-2.16,3.84-4.2,3.84c-0.408,0-0.84-0.072-1.225-0.12c-0.336,0.216-0.72,0.648-0.72,0.984c0,0.479,0.432,0.936,1.512,0.936
		c0.864,0,1.729-0.023,2.521-0.023c1.488,0,3.456,0.479,3.456,2.832c0,2.424-2.808,4.753-6,4.753c-2.664,0-4.129-1.561-4.152-2.929
		c0-0.528,0.216-0.984,0.576-1.344c0.479-0.48,1.416-1.248,1.992-1.681c-0.864-0.264-1.465-0.815-1.776-1.32
		c-0.216-0.359-0.288-0.768-0.265-1.008c0.961-0.36,1.729-0.984,2.112-1.464c-1.08-0.456-2.112-1.584-2.112-3.216
		c0-2.736,2.448-3.984,4.272-3.984h0.024c0.816,0,1.608,0.216,2.304,0.6c1.177-0.048,2.4-0.192,3.265-0.336L166.04,9.431z
		 M160.591,20.016c-1.128,0-1.656,0.145-2.088,0.528c-0.624,0.504-1.104,1.176-1.104,1.872c0,1.296,1.393,2.28,3.169,2.28
		c2.28,0,3.456-1.176,3.456-2.664c0-0.816-0.408-1.416-1.104-1.704c-0.6-0.24-1.296-0.313-2.304-0.313H160.591z M160.063,9.695
		c-1.032,0-1.969,1.008-1.969,2.88s0.912,3.217,2.257,3.217c1.056-0.024,1.992-0.96,1.992-2.856c0-1.896-0.889-3.24-2.257-3.24
		H160.063z"/>
</g>
</svg>
